<svg width="257" height="191" viewBox="0 0 257 191" fill="none" xmlns="http://www.w3.org/2000/svg">
<rect width="257" height="191" fill="#1E1E1E"/>
<g clip-path="url(#clip0_0_1)">
<path d="M249.43 0H7.1C3.17878 0 0 3.17878 0 7.1V182.93C0 186.851 3.17878 190.03 7.1 190.03H249.43C253.351 190.03 256.53 186.851 256.53 182.93V7.1C256.53 3.17878 253.351 0 249.43 0Z" fill="#8854F8"/>
<path d="M128.27 169.32C169.41 169.32 202.76 135.97 202.76 94.83C202.76 53.6903 169.41 20.34 128.27 20.34C87.1303 20.34 53.78 53.6903 53.78 94.83C53.78 135.97 87.1303 169.32 128.27 169.32Z" fill="#653EB8"/>
<path d="M60 95C60.0027 113.106 67.1962 130.469 79.9987 143.271C92.8013 156.074 110.164 163.267 128.27 163.27V26.75C110.167 26.75 92.8054 33.94 80.0029 46.7387C67.2004 59.5375 60.0053 76.8971 60 95Z" fill="#CC4138"/>
<path d="M128.27 26.75V163.28C146.232 163.063 163.384 155.775 176.009 142.996C188.634 130.218 195.714 112.978 195.714 95.015C195.714 77.0518 188.634 59.8124 176.009 47.0338C163.384 34.2553 146.232 26.9674 128.27 26.75Z" fill="#1EC723"/>
<path d="M128.27 158.76C163.578 158.76 192.2 130.138 192.2 94.83C192.2 59.5224 163.578 30.9 128.27 30.9C92.9624 30.9 64.34 59.5224 64.34 94.83C64.34 130.138 92.9624 158.76 128.27 158.76Z" fill="#091D35"/>
<path opacity="0.5" d="M231.38 111.68C237.273 111.68 242.05 106.903 242.05 101.01C242.05 95.1171 237.273 90.34 231.38 90.34C225.487 90.34 220.71 95.1171 220.71 101.01C220.71 106.903 225.487 111.68 231.38 111.68Z" fill="#6834D1"/>
<path opacity="0.5" d="M23.54 111.68C29.4329 111.68 34.21 106.903 34.21 101.01C34.21 95.1171 29.4329 90.34 23.54 90.34C17.6471 90.34 12.87 95.1171 12.87 101.01C12.87 106.903 17.6471 111.68 23.54 111.68Z" fill="#6834D1"/>
<path d="M132.103 158.761L128.27 154.928L124.438 158.761L128.27 162.593L132.103 158.761Z" fill="#091D35"/>
<path d="M132.101 30.8931L128.268 27.0606L124.436 30.8931L128.268 34.7256L132.101 30.8931Z" fill="#091D35"/>
<g clip-path="url(#clip1_0_1)">
<path d="M172.395 85.0927H160.318V94.7836H172.395V85.0927Z" fill="#FF5772"/>
<path d="M183.618 72.9985L153.27 67.442C150.684 66.9662 148.026 67.3796 145.668 68.6244L125.916 79.0495C125.199 79.4292 124.58 79.9945 124.113 80.6955C135.091 87.1097 148.898 89.7321 165.533 88.5626C166.97 88.8362 168.447 88.4835 169.645 87.5811C177.732 86.5224 183.433 82.3725 186.653 74.8068C185.859 73.8486 184.789 73.2111 183.618 72.9985Z" fill="#FF5772"/>
<path d="M163.21 88.1221L124.113 80.6955C123.486 81.6064 123.147 82.712 123.144 83.8485V121.028C123.144 122.336 123.559 123.605 124.32 124.621C125.08 125.636 126.139 126.338 127.32 126.607L163.196 134.791C164.483 135.092 165.814 135.092 167.101 134.791C170.186 120.757 170.806 107.11 167.7 94.0495C167.728 92.6428 167.29 91.2716 166.467 90.1844C165.643 89.0971 164.488 88.3655 163.21 88.1221Z" fill="#FC3F5F"/>
<path d="M186.653 74.8068L169.616 87.6043C169.05 88.0341 168.586 88.6037 168.263 89.2661C167.94 89.9285 167.766 90.6648 167.757 91.4142L167.115 134.76C168.283 134.478 169.388 133.953 170.372 133.215L185.884 121.623C186.542 121.132 187.08 120.476 187.452 119.71C187.825 118.944 188.02 118.092 188.021 117.226V78.5858C188.008 77.1868 187.521 75.8418 186.653 74.8068Z" fill="#EB3D5A"/>
<path d="M135.646 97.9563C137.435 97.1891 138.191 94.659 137.333 92.3053C136.475 89.9516 134.329 88.6655 132.539 89.4328C130.749 90.2001 129.994 92.7302 130.852 95.0839C131.71 97.4376 133.856 98.7236 135.646 97.9563Z" fill="#FFBDC9"/>
<path d="M135.649 110.075C137.439 109.308 138.194 106.778 137.336 104.424C136.478 102.071 134.332 100.784 132.542 101.552C130.753 102.319 129.997 104.849 130.855 107.203C131.713 109.557 133.86 110.843 135.649 110.075Z" fill="#FFBDC9"/>
<path d="M135.65 122.187C137.439 121.42 138.195 118.89 137.337 116.536C136.479 114.182 134.332 112.896 132.543 113.664C130.753 114.431 129.998 116.961 130.856 119.315C131.714 121.668 133.86 122.954 135.65 122.187Z" fill="#FFBDC9"/>
<path opacity="0.3" d="M126.137 115.278L125.218 124.073C125.16 124.614 125.29 125.158 125.583 125.601C125.875 126.044 126.309 126.353 126.799 126.468L143.53 130.402V102.141L126.137 115.278Z" fill="#091D35"/>
<path d="M156.698 102.463C158.487 101.696 159.243 99.1657 158.385 96.812C157.527 94.4583 155.381 93.1723 153.591 93.9395C151.801 94.7068 151.046 97.2369 151.904 99.5906C152.762 101.944 154.908 103.23 156.698 102.463Z" fill="#FFBDC9"/>
<path d="M177.363 97.0935C177.787 94.6046 177.186 92.3978 176.021 92.1646C174.856 91.9314 173.569 93.76 173.145 96.2488C172.721 98.7377 173.322 100.944 174.487 101.178C175.652 101.411 176.94 99.5823 177.363 97.0935Z" fill="#FFBDC9"/>
<path d="M185.227 91.5357C185.65 89.0468 185.05 86.8401 183.885 86.6069C182.72 86.3736 181.432 88.2022 181.008 90.6911C180.585 93.18 181.186 95.3867 182.35 95.62C183.515 95.8532 184.803 94.0246 185.227 91.5357Z" fill="#FFBDC9"/>
<path d="M177.367 116.866C177.79 114.377 177.19 112.171 176.025 111.937C174.86 111.704 173.572 113.533 173.148 116.022C172.725 118.51 173.326 120.717 174.49 120.95C175.655 121.184 176.943 119.355 177.367 116.866Z" fill="#FFBDC9"/>
<path d="M185.23 111.308C185.654 108.82 185.053 106.613 183.888 106.38C182.723 106.146 181.436 107.975 181.012 110.464C180.588 112.953 181.189 115.159 182.354 115.393C183.519 115.626 184.806 113.797 185.23 111.308Z" fill="#FFBDC9"/>
<path d="M157.489 78.6476C159.822 78.6476 161.714 77.7895 161.714 76.7311C161.714 75.6726 159.822 74.8145 157.489 74.8145C155.155 74.8145 153.263 75.6726 153.263 76.7311C153.263 77.7895 155.155 78.6476 157.489 78.6476Z" fill="#FFBDC9"/>
<path d="M162.655 84.3431C164.988 84.3431 166.88 83.4851 166.88 82.4266C166.88 81.3681 164.988 80.51 162.655 80.51C160.321 80.51 158.429 81.3681 158.429 82.4266C158.429 83.4851 160.321 84.3431 162.655 84.3431Z" fill="#FFBDC9"/>
<path d="M141.321 80.2705C143.655 80.2705 145.546 79.4124 145.546 78.3539C145.546 77.2955 143.655 76.4374 141.321 76.4374C138.987 76.4374 137.096 77.2955 137.096 78.3539C137.096 79.4124 138.987 80.2705 141.321 80.2705Z" fill="#FFBDC9"/>
<path d="M173.699 77.0325C176.033 77.0325 177.925 76.1744 177.925 75.1159C177.925 74.0574 176.033 73.1994 173.699 73.1994C171.366 73.1994 169.474 74.0574 169.474 75.1159C169.474 76.1744 171.366 77.0325 173.699 77.0325Z" fill="#FFBDC9"/>
<path d="M151.988 73.5549C154.322 73.5549 156.213 72.6968 156.213 71.6383C156.213 70.5799 154.322 69.7218 151.988 69.7218C149.654 69.7218 147.762 70.5799 147.762 71.6383C147.762 72.6968 149.654 73.5549 151.988 73.5549Z" fill="#FFBDC9"/>
<path d="M156.7 115.376C158.49 114.609 159.245 112.079 158.387 109.725C157.529 107.372 155.383 106.086 153.593 106.853C151.804 107.62 151.048 110.15 151.906 112.504C152.764 114.858 154.91 116.144 156.7 115.376Z" fill="#FFBDC9"/>
<path d="M156.863 128.061C158.652 127.289 159.403 124.755 158.54 122.401C157.676 120.048 155.526 118.765 153.736 119.538C151.946 120.31 151.195 122.844 152.059 125.198C152.922 127.552 155.073 128.834 156.863 128.061Z" fill="#FFBDC9"/>
<path d="M127.676 61.9088L97.8628 55.1777C96.494 54.8708 95.0749 54.9599 93.7478 55.436C92.4208 55.9121 91.2327 56.7585 90.3027 57.8902L70.0236 82.5193C69.0859 83.6552 68.4418 85.0397 68.1565 86.5326C67.8712 88.0254 67.9548 89.5736 68.399 91.0201L77.9329 122.342C78.3706 123.782 79.1503 125.071 80.1935 126.08C81.2367 127.09 82.5067 127.783 83.8755 128.091L113.681 134.822C115.051 135.131 116.471 135.043 117.799 134.568C119.127 134.094 120.317 133.248 121.249 132.117L141.528 107.481C142.454 106.352 143.091 104.979 143.375 103.499C143.659 102.02 143.58 100.485 143.145 99.0495L133.618 67.6661C133.182 66.2247 132.403 64.9336 131.359 63.9228C130.316 62.9121 129.045 62.2174 127.676 61.9088Z" fill="#E3E0D6"/>
<path d="M108.914 91.1824L129.664 65.9814C129.898 65.6975 130.064 65.3553 130.147 64.9851C130.231 64.615 130.228 64.2283 130.141 63.8592C130.054 63.4902 129.884 63.1502 129.647 62.8693C129.409 62.5884 129.112 62.3753 128.78 62.2488C128.42 62.1075 128.051 61.9939 127.676 61.9088L97.8628 55.1777C96.494 54.8708 95.0749 54.9599 93.7479 55.436C92.4208 55.9121 91.2327 56.7585 90.3027 57.8902L70.0236 82.5193C69.7797 82.8176 69.5536 83.1326 69.3467 83.4621C69.1493 83.7833 69.0275 84.1521 68.9918 84.5361C68.956 84.9202 69.0075 85.3079 69.1418 85.6654C69.276 86.0229 69.4889 86.3393 69.7619 86.5871C70.0348 86.8348 70.3595 87.0063 70.7077 87.0865L101.155 93.9567C102.559 94.2749 104.016 94.186 105.378 93.6989C106.74 93.2118 107.96 92.3438 108.914 91.1824Z" fill="#FFFCF2"/>
<path d="M101.44 94.0263L71.4701 87.2566C71.0133 87.1547 70.5399 87.1846 70.0971 87.3433C69.6543 87.502 69.2576 87.784 68.9468 88.161C68.6359 88.5381 68.4217 88.997 68.3256 89.4919C68.2295 89.9868 68.2548 90.5005 68.399 90.9815L77.9329 122.342C78.3706 123.782 79.1503 125.071 80.1935 126.08C81.2367 127.09 82.5067 127.783 83.8755 128.091L113.681 134.822C114.011 134.896 114.344 134.948 114.679 134.977C115.039 135.009 115.4 134.946 115.732 134.791C116.064 134.637 116.356 134.397 116.583 134.092C116.809 133.787 116.963 133.426 117.031 133.041C117.099 132.657 117.079 132.26 116.973 131.886L107.19 99.5595C106.765 98.1703 106.009 96.9272 105 95.9557C103.99 94.9842 102.762 94.3187 101.44 94.0263Z" fill="#F2EFE5"/>
<path d="M99.7991 76.4592C102.658 75.4372 104.629 73.4652 104.2 72.0546C103.771 70.6439 101.106 70.3288 98.2469 71.3508C95.3877 72.3727 93.4173 74.3447 93.8459 75.7554C94.2746 77.166 96.9399 77.4811 99.7991 76.4592Z" fill="#091D35"/>
<path d="M96.7533 66.437C99.6126 65.4151 101.583 63.4431 101.154 62.0324C100.726 60.6218 98.0603 60.3067 95.2011 61.3286C92.3418 62.3506 90.3715 64.3226 90.8001 65.7332C91.2288 67.1439 93.8941 67.459 96.7533 66.437Z" fill="#091D35"/>
<path d="M103.542 86.5964C106.401 85.5744 108.372 83.6024 107.943 82.1918C107.514 80.7811 104.849 80.466 101.99 81.488C99.1305 82.5099 97.1601 84.4819 97.5887 85.8926C98.0174 87.3032 100.683 87.6183 103.542 86.5964Z" fill="#091D35"/>
<path d="M102.29 109.894C103.387 109.005 102.814 106.164 101.011 103.549C99.2085 100.934 96.8579 99.5359 95.7612 100.425C94.6644 101.315 95.2369 104.156 97.0399 106.77C98.8428 109.385 101.193 110.784 102.29 109.894Z" fill="#091D35"/>
<path d="M94.6277 117.247C95.7245 116.357 95.152 113.516 93.349 110.902C91.5461 108.287 89.1954 106.888 88.0987 107.778C87.002 108.667 87.5745 111.508 89.3774 114.123C91.1804 116.738 93.531 118.136 94.6277 117.247Z" fill="#091D35"/>
<path d="M107.172 128.344C108.269 127.454 107.696 124.613 105.893 121.999C104.09 119.384 101.74 117.985 100.643 118.875C99.5461 119.764 100.119 122.605 101.922 125.22C103.725 127.835 106.075 129.233 107.172 128.344Z" fill="#091D35"/>
<path d="M82.1378 104.744C83.2345 103.854 82.662 101.013 80.8591 98.3985C79.0562 95.7837 76.7055 94.3851 75.6088 95.2746C74.5121 96.1641 75.0845 99.0049 76.8875 101.62C78.6904 104.234 81.0411 105.633 82.1378 104.744Z" fill="#091D35"/>
<path d="M88.2375 124.672C89.3342 123.782 88.7617 120.941 86.9588 118.327C85.1558 115.712 82.8052 114.313 81.7084 115.203C80.6117 116.092 81.1842 118.933 82.9871 121.548C84.7901 124.163 87.1407 125.561 88.2375 124.672Z" fill="#091D35"/>
<path d="M128.956 99.7807C129.816 96.6516 129.449 93.7711 128.136 93.3471C126.824 92.923 125.063 95.1159 124.203 98.245C123.344 101.374 123.711 104.255 125.024 104.679C126.336 105.103 128.097 102.91 128.956 99.7807Z" fill="#091D35"/>
</g>
</g>
<defs>
<clipPath id="clip0_0_1">
<rect width="256.53" height="190.03" fill="white"/>
</clipPath>
<clipPath id="clip1_0_1">
<rect width="120" height="80" fill="white" transform="translate(68 55)"/>
</clipPath>
</defs>
</svg>
